<svg id="Layer_3" enable-background="new 0 0 64 64" height="512" viewBox="0 0 64 64" width="512" xmlns="http://www.w3.org/2000/svg"><g><path d="m35 43c3.309 0 6-2.691 6-6v-11.5l-1.2-.9c-1.376-1.032-3.081-1.6-4.8-1.6s-3.424.568-4.8 1.6l-1.2.9v11.5c0 3.309 2.691 6 6 6zm2-16h2v4h-2zm0 6h2v2h-2z"/><path d="m21 37c0 4.411-3.589 8-8 8s-8-3.589-8-8v-3.99c-1.285 1.713-2 3.801-2 5.99v22h20v-22c0-2.189-.715-4.277-2-5.99zm0 12h-16v-2h16z"/><path d="m7 37c0 3.309 2.691 6 6 6s6-2.691 6-6v-11.5l-1.2-.9c-1.376-1.032-3.081-1.6-4.8-1.6s-3.424.568-4.8 1.6l-1.2.9zm8-10h2v4h-2zm0 6h2v2h-2z"/><path d="m43 37c0 4.411-3.589 8-8 8s-8-3.589-8-8v-3.99c-1.285 1.713-2 3.801-2 5.99v22h20v-22c0-2.189-.715-4.277-2-5.99zm0 12h-16v-2h16z"/><path d="m45.843 18.379h9.314v2.243h-9.314z" transform="matrix(.707 -.707 .707 .707 1.003 41.42)"/><path d="m39.843 12.379h9.314v2.243h-9.314z" transform="matrix(.707 -.707 .707 .707 3.488 35.42)"/><path d="m52.171 6.757h3.657v6.485h-3.657z" transform="matrix(.707 -.707 .707 .707 8.745 41.113)"/><path d="m56.068 4.629h4.364v2.243h-4.364z" transform="matrix(.707 -.707 .707 .707 12.995 42.873)"/><path d="m42.843 15.379h9.314v2.243h-9.314z" transform="matrix(.707 -.707 .707 .707 2.245 38.42)"/><path d="m6 12c0 .553.448 1 1 1s1-.447 1-1c0-2.206 1.794-4 4-4 .552 0 1-.447 1-1s-.448-1-1-1c-2.206 0-4-1.794-4-4 0-.553-.448-1-1-1s-1 .447-1 1c0 2.206-1.794 4-4 4-.552 0-1 .447-1 1s.448 1 1 1c2.206 0 4 1.794 4 4z"/><path d="m23 13c-2.206 0-4-1.794-4-4 0-.553-.448-1-1-1s-1 .447-1 1c0 2.206-1.794 4-4 4-.552 0-1 .447-1 1s.448 1 1 1c2.206 0 4 1.794 4 4 0 .553.448 1 1 1s1-.447 1-1c0-2.206 1.794-4 4-4 .552 0 1-.447 1-1s-.448-1-1-1z"/></g></svg>