<svg id="Bold" height="512" viewBox="0 0 24 24" width="512" xmlns="http://www.w3.org/2000/svg"><path d="m21.143 15c-.763 0-1.479-.297-2.02-.837l-9.286-9.286c-.54-.539-.837-1.257-.837-2.02 0-1.575 1.282-2.857 2.857-2.857.763 0 1.479.297 2.02.837l9.286 9.286c.54.539.837 1.257.837 2.02 0 1.575-1.282 2.857-2.857 2.857zm-9.892-11.537 9.286 9.286c.162.162.377.251.606.251.472 0 .857-.384.857-.857 0-.229-.089-.444-.251-.606l-9.286-9.286c-.162-.162-.377-.251-.606-.251-.472 0-.857.384-.857.857 0 .229.089.444.251.606z"/><path d="m8.78 5.967c-.43-.429-.76-.928-.97-1.467-2.71.369-4.81 2.904-4.81 5.958v6.058c0 1.917 1.43 3.484 3.19 3.484h4.62c1.76 0 3.19-1.567 3.19-3.483v-5.34z"/><path d="m1 24c-.553 0-1-.454-1-1.015v-7.074c0-2.227 1.273-4.177 3.168-4.854.522-.185 1.092.092 1.275.62s-.091 1.108-.611 1.294c-1.079.386-1.832 1.595-1.832 2.941v7.074c0 .56-.447 1.014-1 1.014z"/><path d="m16 24c.553 0 1-.454 1-1.015v-7.074c0-2.227-1.273-4.177-3.168-4.854-.522-.185-1.092.092-1.275.62s.091 1.108.611 1.294c1.079.386 1.832 1.595 1.832 2.941v7.074c0 .56.447 1.014 1 1.014z"/></svg>